# xmcd CD database file
#
# Track frame offsets:
#	187
#	18327
#	37927
#	55457
#	68977
#	88457
#	107220
#	124780
#	144302
#	163622
#	180480
#	201247
#
# Disc length: 2799 seconds
#
# Revision: 0
# Processed by: cddbd v1.5PL3 Copyright (c) Steve Scherf et al.
# Submitted via: CDex 1.40Release
#
DISCID=a90aed0c
DTITLE=宮村　優子 - ケンカ番長
DYEAR=1996
DGENRE=Vocal
TTITLE0=The song for girl
TTITLE1=こどものうた
TTITLE2=ゾンビーぞうさん
TTITLE3=いいでしょ　夢で
TTITLE4=ドラマ：根性戦隊ガッツマン　第186話
TTITLE5=根性戦隊ガッツマン
TTITLE6=MINE
TTITLE7=か・い・け・つ　みやむーちゃん
TTITLE8=bliss of life（人生における精神的な至福）
TTITLE9=恋をするなら（New Version）
TTITLE10=HELLO,STRANGE DAYS
TTITLE11=おやすみなさい。
EXTD=YEAR: 1996 ID3G: 28
EXTT0=
EXTT1=
EXTT2=
EXTT3=
EXTT4=
EXTT5=
EXTT6=
EXTT7=
EXTT8=
EXTT9=
EXTT10=
EXTT11=
PLAYORDER=
